<?xml version="1.0" standalone="no"?><!-- Generator: Gravit.io --><svg xmlns="http://www.w3.org/2000/svg" xmlns:xlink="http://www.w3.org/1999/xlink" style="isolation:isolate" viewBox="0 0 45 45" width="45" height="45"><defs><clipPath id="_clipPath_g2RxF3AJl7qfVuRGMjYW1A9ylVMz4bDq"><rect width="45" height="45"/></clipPath></defs><g clip-path="url(#_clipPath_g2RxF3AJl7qfVuRGMjYW1A9ylVMz4bDq)"><path d=" M 31.522 8.14 C 35.625 8.14 38.911 11.427 38.911 15.529 C 38.911 19.632 30.915 28.654 22.5 35.625 C 14.085 28.445 6.089 19.423 6.089 15.529 C 6.089 11.427 9.375 8.14 13.478 8.14 C 18.397 8.14 22.5 14.294 22.5 14.294 C 22.5 14.294 26.394 8.14 31.522 8.14 Z  M 31.522 4.038 C 27.838 4.038 24.551 5.88 22.5 8.756 C 20.449 5.882 17.162 4.038 13.478 4.038 C 10.428 4.032 7.502 5.24 5.345 7.397 C 3.189 9.553 1.98 12.48 1.986 15.529 C 1.986 24.551 22.5 40.963 22.5 40.963 C 22.5 40.963 43.014 24.551 43.014 15.529 C 43.014 9.166 37.885 4.038 31.522 4.038 Z " fill="rgb(239,211,215)"/></g></svg>