<?xml version="1.0" standalone="no"?><!-- Generator: Gravit.io --><svg xmlns="http://www.w3.org/2000/svg" xmlns:xlink="http://www.w3.org/1999/xlink" style="isolation:isolate" viewBox="0 0 45 45" width="45" height="45"><defs><clipPath id="_clipPath_ZoXjwoiL1NZL7nn7hLPkCraFW7fBBJb1"><rect width="45" height="45"/></clipPath></defs><g clip-path="url(#_clipPath_ZoXjwoiL1NZL7nn7hLPkCraFW7fBBJb1)"><path d=" M 13.062 0 C 5.867 0 0 5.867 0 13.062 L 0 31.938 C 0 39.133 5.867 45 13.062 45 L 31.938 45 C 39.133 45 45 39.133 45 31.938 L 45 13.062 C 45 5.867 39.133 0 31.938 0 L 13.062 0 Z  M 13.062 3.462 L 31.938 3.462 C 34.487 3.454 36.933 4.463 38.735 6.265 C 40.537 8.067 41.546 10.513 41.538 13.062 L 41.538 31.938 C 41.546 34.487 40.537 36.933 38.735 38.735 C 36.933 40.537 34.487 41.546 31.938 41.538 L 13.062 41.538 C 10.513 41.546 8.067 40.537 6.265 38.735 C 4.463 36.933 3.454 34.487 3.462 31.938 L 3.462 13.062 C 3.454 10.513 4.463 8.067 6.265 6.265 C 8.067 4.463 10.513 3.454 13.062 3.462 L 13.062 3.462 Z  M 35.481 6.923 C 34.047 6.923 32.885 8.085 32.885 9.519 C 32.885 10.953 34.047 12.115 35.481 12.115 C 36.915 12.115 38.077 10.953 38.077 9.519 C 38.077 8.085 36.915 6.923 35.481 6.923 Z  M 22.5 10.385 C 15.828 10.385 10.385 15.828 10.385 22.5 C 10.385 29.172 15.828 34.615 22.5 34.615 C 29.172 34.615 34.615 29.172 34.615 22.5 C 34.615 15.828 29.172 10.385 22.5 10.385 Z  M 22.5 13.846 C 27.299 13.846 31.154 17.701 31.154 22.5 C 31.154 27.299 27.299 31.154 22.5 31.154 C 17.701 31.154 13.846 27.299 13.846 22.5 C 13.846 17.701 17.701 13.846 22.5 13.846 Z " fill="rgb(239,211,215)"/></g></svg>