<?xml version="1.0" standalone="no"?><!-- Generator: Gravit.io --><svg xmlns="http://www.w3.org/2000/svg" xmlns:xlink="http://www.w3.org/1999/xlink" style="isolation:isolate" viewBox="0 0 45 45" width="45" height="45"><defs><clipPath id="_clipPath_YCorPQTGm5yunZZF0RYQgjaVmcBvyMuA"><rect width="45" height="45"/></clipPath></defs><g clip-path="url(#_clipPath_YCorPQTGm5yunZZF0RYQgjaVmcBvyMuA)"><path d=" M 4.758 1.023 L 1.957 8.493 L 1.957 38.375 L 12.228 38.375 L 12.228 43.977 L 17.831 43.977 L 23.434 38.375 L 31.838 38.375 L 43.043 27.169 L 43.043 1.023 L 4.758 1.023 Z  M 9.427 4.758 L 39.308 4.758 L 39.308 25.301 L 33.706 30.904 L 22.5 30.904 L 16.897 36.507 L 16.897 30.904 L 9.427 30.904 L 9.427 4.758 Z  M 18.765 12.228 L 18.765 23.434 L 22.5 23.434 L 22.5 12.228 L 18.765 12.228 Z  M 28.103 12.228 L 28.103 23.434 L 31.838 23.434 L 31.838 12.228 L 28.103 12.228 Z " fill="rgb(239,211,215)"/></g></svg>