<?xml version="1.0" standalone="no"?><!-- Generator: Gravit.io --><svg xmlns="http://www.w3.org/2000/svg" xmlns:xlink="http://www.w3.org/1999/xlink" style="isolation:isolate" viewBox="0 0 45 45" width="45" height="45"><defs><clipPath id="_clipPath_Jys0qQpiAE6K4n63997J9qRiSSmfRFDr"><rect width="45" height="45"/></clipPath></defs><g clip-path="url(#_clipPath_Jys0qQpiAE6K4n63997J9qRiSSmfRFDr)"><path d=" M 40.5 0 L 4.5 0 C 2.021 0 0 2.021 0 4.5 L 0 40.5 C 0 42.979 2.021 45 4.5 45 L 40.5 45 C 42.979 45 45 42.979 45 40.5 L 45 4.5 C 45 2.021 42.979 0 40.5 0 Z  M 35.104 15.3 L 35.104 16.2 C 35.104 24.75 28.573 34.646 16.645 34.646 C 13.052 34.646 9.677 33.521 6.75 31.729 L 8.325 31.729 C 11.25 31.729 14.175 30.605 16.425 29.02 C 13.5 29.02 11.25 27 10.355 24.52 C 10.802 24.52 11.25 24.75 11.48 24.75 C 12.145 24.75 12.605 24.75 13.27 24.52 C 10.355 23.855 8.105 21.375 8.105 18.23 C 9 18.677 9.895 18.895 11.02 19.125 C 9.23 17.55 8.105 15.75 8.105 13.5 C 8.105 12.375 8.323 11.25 9 10.355 C 12.145 14.177 16.875 16.875 22.27 17.105 C 22.27 16.645 22.052 16.198 22.052 15.52 C 22.055 11.92 24.973 9.002 28.573 9 C 30.375 9 32.177 9.675 33.302 11.02 C 34.875 10.802 36.227 10.125 37.352 9.448 C 36.896 11.023 35.771 12.148 34.427 13.052 C 35.771 12.823 36.896 12.602 38.25 11.927 C 37.378 13.205 36.318 14.343 35.104 15.302 L 35.104 15.3 Z " fill="rgb(239,211,215)"/></g></svg>