<?xml version="1.0" standalone="no"?><!-- Generator: Gravit.io --><svg xmlns="http://www.w3.org/2000/svg" xmlns:xlink="http://www.w3.org/1999/xlink" style="isolation:isolate" viewBox="0 0 45 45" width="45" height="45"><defs><clipPath id="_clipPath_XXUCCYiRw9apeaA7mXyr5c0szWsjKywF"><rect width="45" height="45"/></clipPath></defs><g clip-path="url(#_clipPath_XXUCCYiRw9apeaA7mXyr5c0szWsjKywF)"><path d=" M 6.64 0 L 10 11.25 L 10 18 L 12.5 18 L 12.5 11.25 L 16.095 0 L 13.435 0 L 11.482 7.031 L 11.25 7.031 L 9.453 0 L 6.64 0 Z  M 21.328 4.5 C 20.155 4.5 19.21 4.826 18.515 5.414 C 17.822 6.003 17.5 6.741 17.5 7.736 L 17.5 14.414 C 17.5 15.505 17.843 16.373 18.515 17.015 C 19.2 17.658 20.115 18 21.25 18 C 22.422 18 23.31 17.71 23.985 17.086 C 24.648 16.454 25 15.583 25 14.485 L 25 7.803 C 25 6.829 24.667 6.03 23.985 5.414 C 23.3 4.793 22.4 4.5 21.325 4.5 L 21.328 4.5 Z  M 27.5 4.5 L 27.5 15.539 C 27.5 16.321 27.657 17.051 27.97 17.438 C 28.27 17.824 28.693 18 29.295 18 C 29.785 18 30.343 17.852 30.86 17.577 C 31.385 17.307 31.865 16.911 32.345 16.384 L 32.345 18 L 35 18 L 35 4.5 L 32.5 4.5 L 32.5 14.414 C 32.255 14.695 31.7 14.942 31.405 15.118 C 31.112 15.302 30.898 15.399 30.705 15.399 C 30.46 15.399 30.262 15.32 30.155 15.188 C 30.04 15.046 30 14.792 30 14.483 L 30 4.5 L 27.5 4.5 Z  M 21.25 6.75 C 21.593 6.75 21.983 6.795 22.188 6.961 C 22.398 7.145 22.511 7.4 22.5 7.664 L 22.5 14.695 C 22.518 14.98 22.405 15.26 22.188 15.469 C 21.983 15.671 21.602 15.75 21.25 15.75 C 20.907 15.75 20.487 15.66 20.313 15.469 C 20.103 15.256 19.991 14.979 20 14.695 L 20 7.664 C 20 7.393 20.117 7.137 20.313 6.961 C 20.508 6.795 20.938 6.75 21.25 6.75 Z  M 5 20.25 C 2.245 20.25 0 22.27 0 24.75 L 0 40.5 C 0 42.979 2.245 45 5 45 L 40 45 C 42.755 45 45 42.979 45 40.5 L 45 24.75 C 45 22.27 42.755 20.25 40 20.25 L 5 20.25 Z  M 4.765 22.5 L 12.657 22.5 C 12.833 22.5 12.968 22.624 12.968 22.781 L 12.968 24.82 C 12.968 24.953 12.833 25.101 12.657 25.101 L 10.313 25.101 L 10.313 40.289 C 10.313 40.421 10.148 40.57 10 40.57 L 7.5 40.57 C 7.352 40.57 7.188 40.421 7.188 40.289 L 7.188 25.101 L 4.765 25.101 C 4.59 25.101 4.453 24.953 4.453 24.82 L 4.453 22.781 C 4.453 22.624 4.59 22.5 4.765 22.5 Z  M 22.5 22.5 L 25 22.5 C 25.148 22.5 25.313 22.624 25.313 22.781 L 25.313 27.914 C 25.538 27.738 25.712 27.623 25.938 27.493 C 26.367 27.29 27.05 27 27.5 27 C 28.4 27 29.13 27.308 29.61 27.914 C 30.087 28.503 30 29.882 30 30.938 L 30 38.25 C 30 40.061 28.65 40.711 27.5 40.711 C 26.957 40.698 26.423 40.578 25.938 40.358 C 25.712 40.271 25.538 40.095 25.313 39.938 L 25.313 40.219 C 25.313 40.352 25.148 40.5 25 40.5 L 22.5 40.5 C 22.352 40.5 22.188 40.352 22.188 40.219 L 22.188 22.781 C 22.188 22.624 22.352 22.5 22.5 22.5 Z  M 12.5 27 L 15 27 C 15.148 27 15.313 27.148 15.313 27.281 L 15.313 37.336 C 15.313 37.775 15.477 37.969 15.703 37.969 C 16.028 37.969 16.992 37.397 17.188 37.195 L 17.188 27.281 C 17.188 27.148 17.352 27 17.5 27 L 20 27 C 20.175 27 20.313 27.148 20.313 27.281 L 20.313 40.219 C 20.313 40.352 20.175 40.5 20 40.5 L 17.5 40.5 C 17.325 40.5 17.188 40.352 17.188 40.219 L 17.188 39.515 C 16.837 39.807 15.187 40.711 14.297 40.711 C 13.676 40.735 13.086 40.469 12.735 40.007 C 12.385 39.602 12.188 39.04 12.188 38.25 L 12.188 27.281 C 12.188 27.148 12.352 27 12.5 27 Z  M 36.095 27 C 37.372 27 38.232 27.36 38.907 28.055 C 39.58 28.73 40 29.698 40 30.938 L 40 33.75 C 40 33.883 39.913 34.031 39.765 34.031 L 35 34.031 L 35 36.704 C 35 38.68 37.5 38.628 37.5 36.844 L 37.5 36 C 37.5 35.867 37.53 35.728 37.735 35.719 L 39.688 35.649 C 39.862 35.649 40 35.797 40 35.93 L 40 36.844 C 40 39.929 37.315 40.57 35.938 40.57 C 34.717 40.57 32.343 39.472 32.343 36.774 L 32.343 30.938 C 32.343 27.652 34.872 27 36.093 27 L 36.095 27 Z  M 36.328 29.25 C 36.01 29.226 35.696 29.329 35.47 29.531 C 35.39 29.644 35.313 29.936 35.313 30.517 L 35.313 31.5 L 37.265 31.5 L 37.265 30.515 C 37.265 29.936 37.13 29.646 37.032 29.531 C 36.843 29.363 36.591 29.263 36.325 29.25 L 36.328 29.25 Z  M 26.407 29.531 C 26.17 29.488 25.924 29.512 25.703 29.601 C 25.555 29.673 25.423 29.768 25.313 29.882 L 25.313 37.827 C 25.487 37.984 25.655 38.039 25.782 38.108 C 25.923 38.19 26.083 38.239 26.25 38.25 C 26.572 38.25 27.11 38.223 27.11 37.406 L 27.11 30.515 C 27.11 30.155 27.023 29.9 26.875 29.743 C 26.788 29.619 26.63 29.558 26.405 29.531 L 26.407 29.531 Z " fill="rgb(239,211,215)"/></g></svg>